:SAMPLES-PER-SECOND 30
:FULLY-SPECIFIED
:DEGREES
656
root  61.5333 39.6526 -4.61708 -8.2435 -66.4168 12.7283
RightUpLeg  1.83753 -27.2938 -6.35211
RightLeg  32.8818 -5.96019 -4.3755
RightFoot  -5.89558 -0.444395 8.67105
RightToes  0.00048216 0.542163 -0.142577
Spine  7.51967 0.606188 -0.136869
Spine1  6.75617 2.02329 -4.80955
HEad  -11.0025 -6.50771 3.81367
LeftShoulder1  7.81729 -11.8544 -44.3217
LeftArm  -7.96686 26.7811 -24.3402
LeftForeArm  32.2581 -27.6216 -4.21488
LeftHand  -0.25398 0.0180481 5.50724
RightShoulder  4.84065 8.17434 35.4803
RightArm  8.8782 -8.95922 42.6907
RightForeArm  5.40821 25.9268 5.28243
RightHand  -1.30844 3.11795 -18.0144
LeftUpLeg  -9.98199 6.38749 -5.22723
LeftLeg  3.14659 63.4451 -8.45235
LeftFoot  -4.85931 -0.482778 9.02629
LeftToes  1.06247e-005 4.65855e-005 -8.18501e-006
657
root  62.4414 39.4896 -4.49262 -11.6005 -69.5777 16.0753
RightUpLeg  5.2829 -27.6729 -7.12607
RightLeg  26.8586 -5.71111 -3.4717
RightFoot  -9.41348 -0.254923 10.9914
RightToes  0.00048216 0.542163 -0.142577
Spine  7.42223 0.441633 -0.566043
Spine1  6.84787 1.75716 -4.43141
HEad  -11.6597 -6.02211 3.29778
LeftShoulder1  7.8623 -11.9103 -44.4201
LeftArm  -7.71207 26.5968 -24.6698
LeftForeArm  32.7152 -27.2486 -4.11028
LeftHand  -0.25398 0.0180481 5.50724
RightShoulder  4.83145 8.16915 35.421
RightArm  9.42956 -8.40212 42.8416
RightForeArm  4.69556 24.8618 5.07877
RightHand  -1.28799 3.09405 -17.7884
LeftUpLeg  -11.4006 6.81068 -5.9951
LeftLeg  3.84752 66.4886 -8.33619
LeftFoot  -5.36048 -0.519056 10.518
LeftToes  1.06247e-005 4.65855e-005 -8.18501e-006
658
root  63.3868 39.3446 -4.38739 -14.9462 -72.5182 19.3308
RightUpLeg  7.96316 -27.0034 -7.65041
RightLeg  20.1659 -6.63901 -2.24035
RightFoot  -13.7507 0.10078 9.6742
RightToes  0.00048216 0.542163 -0.142577
Spine  7.50628 0.38154 -0.149806
Spine1  7.26269 1.67845 -4.12393
HEad  -12.7954 -5.58116 2.44403
LeftShoulder1  7.94971 -11.9351 -44.8606
LeftArm  -7.54937 25.5478 -24.7734
LeftForeArm  33.236 -27.5114 -4.1405
LeftHand  -0.25398 0.0180481 5.50724
RightShoulder  4.86706 8.25033 35.4376
RightArm  9.44503 -7.52924 42.495
RightForeArm  3.58658 23.6856 4.89194
RightHand  -1.38129 3.62076 -17.9748
LeftUpLeg  -12.3379 7.88927 -6.33543
LeftLeg  1.74767 68.7062 -10.9437
LeftFoot  -5.53434 -0.595296 12.3456
LeftToes  1.06247e-005 4.65855e-005 -8.18501e-006
659
root  64.3974 39.223 -4.28693 -16.761 -75.1699 20.9754
RightUpLeg  8.78043 -20.5294 -6.83646
RightLeg  15.2686 -12.5059 0.107001
RightFoot  -16.8873 0.18825 6.18505
RightToes  0.00048216 0.542163 -0.142577
Spine  8.1164 0.28765 1.6146
Spine1  7.45901 1.72469 -4.25319
HEad  -14.1504 -5.2599 1.29847
LeftShoulder1  8.12793 -12.0818 -45.4583
LeftArm  -7.58084 24.0312 -24.7228
LeftForeArm  33.9405 -28.164 -4.24666
LeftHand  -0.25398 0.0180481 5.50724
RightShoulder  5.01909 8.57191 35.5911
RightArm  8.51074 -6.74859 41.6367
RightForeArm  2.60211 22.5575 4.83993
RightHand  -1.47466 4.02674 -18.3671
LeftUpLeg  -13.3481 10.5887 -6.34459
LeftLeg  0.00525768 68.6476 -13.2461
LeftFoot  -5.63066 -0.668252 14.005
LeftToes  1.06247e-005 4.65855e-005 -8.18501e-006
660
root  65.4606 39.1526 -4.20395 -16.0128 -77.1987 20.1158
RightUpLeg  8.09651 -14.1278 -5.30706
RightLeg  12.5458 -17.814 2.01486
RightFoot  -18.3512 0.0969562 3.5659
RightToes  0.00048216 0.542163 -0.142577
Spine  9.21434 0.034493 4.09339
Spine1  7.19425 1.65934 -4.47597
HEad  -15.3908 -4.8938 0.141272
LeftShoulder1  8.32097 -12.3121 -45.8761
LeftArm  -8.17177 22.3078 -24.9113
LeftForeArm  34.9903 -29.0121 -4.37956
LeftHand  -0.25398 0.0180481 5.50724
RightShoulder  5.2045 8.95851 35.7859
RightArm  6.83587 -6.11528 40.4626
RightForeArm  2.23571 21.2645 4.99806
RightHand  -1.50746 4.06618 -18.6864
LeftUpLeg  -15.3725 16.5172 -7.04736
LeftLeg  3.12099 63.8732 -10.4972
LeftFoot  -5.21195 -0.779426 15.0292
LeftToes  1.06247e-005 4.65855e-005 -8.18501e-006
